<svg width="400" height="300" viewBox="0 0 400 300" fill="none" xmlns="http://www.w3.org/2000/svg">
  <!-- Background -->
  <rect width="400" height="300" fill="#F3F4F6"/>
  
  <!-- Field -->
  <rect y="150" width="400" height="150" fill="#84CC16"/>
  
  <!-- Smart Device -->
  <rect x="270" y="70" width="80" height="140" rx="10" fill="#1E40AF"/>
  <rect x="280" y="90" width="60" height="100" rx="5" fill="#DBEAFE"/>
  
  <!-- Plant with Sensor -->
  <path d="M150 150C150 130 160 120 170 120C180 120 190 130 190 150" stroke="#3F6212" stroke-width="4"/>
  <path d="M170 120V150" stroke="#3F6212" stroke-width="4"/>
  <circle cx="170" cy="135" r="10" fill="#EF4444"/>
  
  <!-- Data Connection -->
  <path d="M190 135C230 135 240 135 280 135" stroke="#6366F1" stroke-width="3" stroke-dasharray="5 5"/>
  
  <!-- Charts on Device Screen -->
  <line x1="290" y1="110" x2="330" y2="110" stroke="#6B7280" stroke-width="2"/>
  <line x1="290" y1="130" x2="330" y2="130" stroke="#6B7280" stroke-width="2"/>
  <line x1="290" y1="150" x2="310" y2="150" stroke="#6B7280" stroke-width="2"/>
  <line x1="290" y1="170" x2="330" y2="170" stroke="#6B7280" stroke-width="2"/>
  
  <!-- Bar Chart -->
  <rect x="290" y="120" width="5" height="10" fill="#3B82F6"/>
  <rect x="300" y="115" width="5" height="15" fill="#3B82F6"/>
  <rect x="310" y="110" width="5" height="20" fill="#3B82F6"/>
  <rect x="320" y="105" width="5" height="25" fill="#3B82F6"/>
  
  <!-- Clouds -->
  <ellipse cx="80" cy="50" rx="30" ry="20" fill="white"/>
  <ellipse cx="40" cy="60" rx="20" ry="15" fill="white"/>
  
  <!-- Sun -->
  <circle cx="350" cy="40" r="20" fill="#FBBF24"/>
  
  <!-- Satellite -->
  <rect x="150" y="30" width="30" height="10" fill="#6B7280"/>
  <rect x="160" y="20" width="10" height="30" fill="#6B7280"/>
  <path d="M130 40C130 30 140 30 150 40" stroke="#6B7280" stroke-width="2"/>
  <path d="M180 40C180 30 190 30 200 40" stroke="#6B7280" stroke-width="2"/>
  
  <!-- Data Transmission -->
  <path d="M160 50C160 90 160 110 170 135" stroke="#6366F1" stroke-width="2" stroke-dasharray="5 5"/>
</svg> 