<svg width="400" height="300" viewBox="0 0 400 300" fill="none" xmlns="http://www.w3.org/2000/svg">
  <!-- Background -->
  <rect width="400" height="300" fill="#F9FAFB"/>
  
  <!-- SDG Logo/Style -->
  <circle cx="105" cy="80" r="35" fill="#E4003A"/>
  <text x="92" y="85" font-family="Arial, sans-serif" font-size="14" font-weight="bold" fill="white">SDG 2</text>
  <text x="70" y="130" font-family="Arial, sans-serif" font-size="10" font-weight="bold" fill="#E4003A">Zero Hunger</text>
  
  <circle cx="195" cy="80" r="35" fill="#F36D25"/>
  <text x="182" y="85" font-family="Arial, sans-serif" font-size="14" font-weight="bold" fill="white">SDG 9</text>
  <text x="135" y="130" font-family="Arial, sans-serif" font-size="10" font-weight="bold" fill="#F36D25">Industry, Innovation</text>
  <text x="155" y="145" font-family="Arial, sans-serif" font-size="10" font-weight="bold" fill="#F36D25">& Infrastructure</text>
  
  <circle cx="285" cy="80" r="35" fill="#48773E"/>
  <text x="270" y="85" font-family="Arial, sans-serif" font-size="14" font-weight="bold" fill="white">SDG 13</text>
  <text x="260" y="130" font-family="Arial, sans-serif" font-size="10" font-weight="bold" fill="#48773E">Climate Action</text>
  
  <circle cx="105" cy="200" r="35" fill="#3EB049"/>
  <text x="90" y="205" font-family="Arial, sans-serif" font-size="14" font-weight="bold" fill="white">SDG 15</text>
  <text x="90" y="250" font-family="Arial, sans-serif" font-size="10" font-weight="bold" fill="#3EB049">Life on Land</text>
  
  <circle cx="285" cy="200" r="35" fill="#183668"/>
  <text x="270" y="205" font-family="Arial, sans-serif" font-size="14" font-weight="bold" fill="white">SDG 17</text>
  <text x="245" y="250" font-family="Arial, sans-serif" font-size="10" font-weight="bold" fill="#183668">Partnerships for Goals</text>
  
  <!-- KrishiMitra AI in center -->
  <circle cx="195" cy="200" r="40" fill="#4D7C0F"/>
  <text x="158" y="195" font-family="Arial, sans-serif" font-size="12" font-weight="bold" fill="white">KrishiMitra</text>
  <text x="185" y="210" font-family="Arial, sans-serif" font-size="12" font-weight="bold" fill="white">AI</text>
  
  <!-- Connection Lines -->
  <path d="M135 200L150 200" stroke="white" stroke-width="2"/>
  <path d="M240 200L255 200" stroke="white" stroke-width="2"/>
  <path d="M195 160L195 175" stroke="white" stroke-width="2"/>
  <path d="M195 225L195 240" stroke="white" stroke-width="2"/>
  
  <path d="M150 110C150 130 170 160 195 160" stroke="#4D7C0F" stroke-width="2" stroke-dasharray="5 5"/>
  <path d="M240 110C240 130 220 160 195 160" stroke="#4D7C0F" stroke-width="2" stroke-dasharray="5 5"/>
  <path d="M130 90C130 120 150 140 180 160" stroke="#4D7C0F" stroke-width="2" stroke-dasharray="5 5"/>
  <path d="M260 90C260 120 240 140 210 160" stroke="#4D7C0F" stroke-width="2" stroke-dasharray="5 5"/>
  
  <!-- Farm Image in Background of the Center -->
  <path d="M175 190C175 185 180 180 195 180C210 180 215 185 215 190" stroke="#84CC16" stroke-width="2"/>
  <path d="M185 190V210" stroke="#84CC16" stroke-width="2"/>
  <path d="M205 190V210" stroke="#84CC16" stroke-width="2"/>
</svg> 