<svg width="200" height="50" viewBox="0 0 200 50" fill="none" xmlns="http://www.w3.org/2000/svg">
  <path d="M20 10C14.477 10 10 14.477 10 20C10 25.523 14.477 30 20 30C25.523 30 30 25.523 30 20C30 14.477 25.523 10 20 10ZM20 28C15.589 28 12 24.411 12 20C12 15.589 15.589 12 20 12C24.411 12 28 15.589 28 20C28 24.411 24.411 28 20 28Z" fill="#4D7C0F"/>
  <path d="M20 15C18.895 15 18 15.895 18 17V23C18 24.105 18.895 25 20 25C21.105 25 22 24.105 22 23V17C22 15.895 21.105 15 20 15Z" fill="#4D7C0F"/>
  <path d="M20 30C19.448 30 19 30.448 19 31V38C19 38.552 19.448 39 20 39C20.552 39 21 38.552 21 38V31C21 30.448 20.552 30 20 30Z" fill="#4D7C0F"/>
  <path d="M20 1C19.448 1 19 1.448 19 2V9C19 9.552 19.448 10 20 10C20.552 10 21 9.552 21 9V2C21 1.448 20.552 1 20 1Z" fill="#4D7C0F"/>
  <path d="M30 20C30 19.448 30.448 19 31 19H38C38.552 19 39 19.448 39 20C39 20.552 38.552 21 38 21H31C30.448 21 30 20.552 30 20Z" fill="#4D7C0F"/>
  <path d="M1 20C1 19.448 1.448 19 2 19H9C9.552 19 10 19.448 10 20C10 20.552 9.552 21 9 21H2C1.448 21 1 20.552 1 20Z" fill="#4D7C0F"/>
  <path d="M28.142 11.858C27.752 11.467 27.119 11.467 26.728 11.858L21.728 16.858C21.337 17.248 21.337 17.881 21.728 18.272C22.118 18.663 22.752 18.663 23.142 18.272L28.142 13.272C28.533 12.881 28.533 12.248 28.142 11.858Z" fill="#4D7C0F"/>
  <path d="M13.272 26.728C12.881 26.337 12.248 26.337 11.858 26.728L6.858 31.728C6.467 32.119 6.467 32.752 6.858 33.142C7.248 33.533 7.881 33.533 8.272 33.142L13.272 28.142C13.663 27.752 13.663 27.119 13.272 26.728Z" fill="#4D7C0F"/>
  <path d="M45 15H150C152.761 15 155 17.239 155 20V30C155 32.761 152.761 35 150 35H45V15Z" fill="#4D7C0F"/>
  <text x="52" y="28" font-family="Arial, sans-serif" font-size="14" font-weight="bold" fill="white">KrishiMitra AI</text>
</svg> 